<?xml version="1.0"?>
<svg xmlns="http://www.w3.org/2000/svg" xmlns:xlink="http://www.w3.org/1999/xlink" xmlns:svgjs="http://svgjs.com/svgjs" version="1.1" width="512" height="512" x="0" y="0" viewBox="0 0 511.998 511.998" style="enable-background:new 0 0 512 512" xml:space="preserve" class=""><g><linearGradient xmlns="http://www.w3.org/2000/svg" id="SVGID_1_" gradientUnits="userSpaceOnUse" x1="255.999" x2="255.999" y1="511.998" y2="0"><stop stop-opacity="1" stop-color="#5558ff" offset="0"/><stop stop-opacity="1" stop-color="#9c79cf" offset="1"/></linearGradient><linearGradient xmlns="http://www.w3.org/2000/svg" id="SVGID_2_" gradientUnits="userSpaceOnUse" x1="255.998" x2="255.998" y1="346" y2="166"><stop offset="0" stop-color="#addcff"/><stop offset=".5028" stop-color="#eaf6ff"/><stop offset="1" stop-color="#eaf6ff"/></linearGradient><g xmlns="http://www.w3.org/2000/svg"><g><g><path d="m255.998 0c-140.61 0-255.998 115.39-255.998 256 0 48.94 14.797 96.182 40.988 137.153l-39.915 98.278c-2.227 5.566-.923 11.924 3.325 16.172 4.182 4.182 10.516 5.578 16.172 3.325l98.275-39.918c40.972 26.191 88.213 40.988 137.153 40.988 140.61 0 256-115.387 256-255.997s-115.39-256.001-256-256.001z" fill="url(#SVGID_1_)" data-original="url(#SVGID_1_)" style=""/></g></g><g><g><path d="m418.361 187.519c-3.896-5.713-11.162-8.013-17.637-5.566l-110.947 41.616-53.174-53.174c-2.915-2.915-7.017-4.189-11.045-4.395-4.131.132-8.027 1.948-10.767 5.039l-120 135c-4.585 5.156-5.068 12.759-1.157 18.442 3.882 5.684 11.118 7.954 17.637 5.566l110.947-41.616 53.174 53.174c2.813 2.813 6.636 4.395 10.605 4.395h.439c4.131-.132 8.027-1.948 10.767-5.039l120-135c4.586-5.156 5.069-12.759 1.158-18.442z" fill="url(#SVGID_2_)" data-original="url(#SVGID_2_)" style=""/></g></g></g></g></svg>
